<mxfile host="app.diagrams.net" modified="2024-06-26T09:29:20.940Z" agent="Mozilla/5.0 (Windows NT 10.0; Win64; x64) AppleWebKit/537.36 (KHTML, like Gecko) Chrome/126.0.0.0 Safari/537.36" etag="yPATopPrPhY17mOjzCUw" version="24.6.2" type="github" pages="5">
  <diagram id="ea1RopYp5OvqSiQu20VE" name="第 1 页">
    <mxGraphModel dx="1422" dy="706" grid="0" gridSize="10" guides="1" tooltips="1" connect="1" arrows="1" fold="1" page="1" pageScale="1" pageWidth="827" pageHeight="1169" background="none" math="0" shadow="1">
      <root>
        <mxCell id="0" />
        <mxCell id="1" parent="0" />
        <mxCell id="WUGnNeGUC_aCgyn4Gav0-2" style="edgeStyle=orthogonalEdgeStyle;rounded=0;orthogonalLoop=1;jettySize=auto;html=1;exitX=0;exitY=1;exitDx=0;exitDy=0;endArrow=none;endFill=0;" edge="1" parent="1" source="WUGnNeGUC_aCgyn4Gav0-6">
          <mxGeometry relative="1" as="geometry">
            <mxPoint x="160" y="180" as="targetPoint" />
          </mxGeometry>
        </mxCell>
        <mxCell id="WUGnNeGUC_aCgyn4Gav0-6" value="" style="rounded=0;whiteSpace=wrap;html=1;fillColor=#d5e8d4;strokeColor=#82b366;" vertex="1" parent="1">
          <mxGeometry x="160" y="80" width="20" height="80" as="geometry" />
        </mxCell>
        <mxCell id="WUGnNeGUC_aCgyn4Gav0-7" value="" style="rounded=0;whiteSpace=wrap;html=1;fillColor=#e1d5e7;strokeColor=#9673a6;" vertex="1" parent="1">
          <mxGeometry x="180" y="80" width="20" height="80" as="geometry" />
        </mxCell>
        <mxCell id="WUGnNeGUC_aCgyn4Gav0-8" value="" style="rounded=0;whiteSpace=wrap;html=1;fillColor=#f8cecc;strokeColor=#b85450;" vertex="1" parent="1">
          <mxGeometry x="200" y="80" width="20" height="80" as="geometry" />
        </mxCell>
        <mxCell id="WUGnNeGUC_aCgyn4Gav0-9" value="0" style="text;html=1;align=center;verticalAlign=middle;resizable=0;points=[];autosize=1;" vertex="1" parent="1">
          <mxGeometry x="150" y="180" width="20" height="20" as="geometry" />
        </mxCell>
        <mxCell id="WUGnNeGUC_aCgyn4Gav0-12" value="5" style="text;html=1;align=center;verticalAlign=middle;resizable=0;points=[];autosize=1;" vertex="1" parent="1">
          <mxGeometry x="270" y="180" width="20" height="20" as="geometry" />
        </mxCell>
        <mxCell id="WUGnNeGUC_aCgyn4Gav0-13" value="" style="rounded=0;whiteSpace=wrap;html=1;fillColor=#d5e8d4;strokeColor=#82b366;" vertex="1" parent="1">
          <mxGeometry x="220" y="80" width="19" height="80" as="geometry" />
        </mxCell>
        <mxCell id="WUGnNeGUC_aCgyn4Gav0-14" value="" style="rounded=0;whiteSpace=wrap;html=1;fillColor=#e1d5e7;strokeColor=#9673a6;" vertex="1" parent="1">
          <mxGeometry x="239" y="80" width="21" height="80" as="geometry" />
        </mxCell>
        <mxCell id="WUGnNeGUC_aCgyn4Gav0-15" value="" style="rounded=0;whiteSpace=wrap;html=1;fillColor=#f8cecc;strokeColor=#b85450;" vertex="1" parent="1">
          <mxGeometry x="260" y="80" width="19" height="80" as="geometry" />
        </mxCell>
        <mxCell id="WUGnNeGUC_aCgyn4Gav0-22" value="时间" style="text;html=1;align=center;verticalAlign=middle;resizable=0;points=[];autosize=1;" vertex="1" parent="1">
          <mxGeometry x="263" y="203" width="40" height="20" as="geometry" />
        </mxCell>
        <mxCell id="WUGnNeGUC_aCgyn4Gav0-23" style="edgeStyle=orthogonalEdgeStyle;rounded=0;orthogonalLoop=1;jettySize=auto;html=1;exitX=0;exitY=1;exitDx=0;exitDy=0;endArrow=none;endFill=0;" edge="1" parent="1">
          <mxGeometry relative="1" as="geometry">
            <mxPoint x="279" y="180" as="targetPoint" />
            <mxPoint x="279" y="160" as="sourcePoint" />
          </mxGeometry>
        </mxCell>
        <mxCell id="WUGnNeGUC_aCgyn4Gav0-25" value="" style="rounded=0;whiteSpace=wrap;html=1;fillColor=#d5e8d4;strokeColor=#82b366;" vertex="1" parent="1">
          <mxGeometry x="280" y="80" width="20" height="80" as="geometry" />
        </mxCell>
        <mxCell id="WUGnNeGUC_aCgyn4Gav0-26" value="" style="rounded=0;whiteSpace=wrap;html=1;fillColor=#e1d5e7;strokeColor=#9673a6;" vertex="1" parent="1">
          <mxGeometry x="300" y="80" width="20" height="80" as="geometry" />
        </mxCell>
        <mxCell id="WUGnNeGUC_aCgyn4Gav0-27" value="" style="rounded=0;whiteSpace=wrap;html=1;fillColor=#f8cecc;strokeColor=#b85450;" vertex="1" parent="1">
          <mxGeometry x="320" y="80" width="20" height="80" as="geometry" />
        </mxCell>
        <mxCell id="WUGnNeGUC_aCgyn4Gav0-29" value="10" style="text;html=1;align=center;verticalAlign=middle;resizable=0;points=[];autosize=1;" vertex="1" parent="1">
          <mxGeometry x="385" y="180" width="30" height="20" as="geometry" />
        </mxCell>
        <mxCell id="WUGnNeGUC_aCgyn4Gav0-30" value="" style="rounded=0;whiteSpace=wrap;html=1;fillColor=#d5e8d4;strokeColor=#82b366;" vertex="1" parent="1">
          <mxGeometry x="340" y="80" width="19" height="80" as="geometry" />
        </mxCell>
        <mxCell id="WUGnNeGUC_aCgyn4Gav0-31" value="" style="rounded=0;whiteSpace=wrap;html=1;fillColor=#e1d5e7;strokeColor=#9673a6;" vertex="1" parent="1">
          <mxGeometry x="359" y="80" width="21" height="80" as="geometry" />
        </mxCell>
        <mxCell id="WUGnNeGUC_aCgyn4Gav0-32" value="" style="rounded=0;whiteSpace=wrap;html=1;fillColor=#f8cecc;strokeColor=#b85450;" vertex="1" parent="1">
          <mxGeometry x="380" y="80" width="19" height="80" as="geometry" />
        </mxCell>
        <mxCell id="WUGnNeGUC_aCgyn4Gav0-33" style="edgeStyle=orthogonalEdgeStyle;rounded=0;orthogonalLoop=1;jettySize=auto;html=1;exitX=0;exitY=1;exitDx=0;exitDy=0;endArrow=none;endFill=0;" edge="1" parent="1">
          <mxGeometry relative="1" as="geometry">
            <mxPoint x="399" y="180" as="targetPoint" />
            <mxPoint x="399" y="160" as="sourcePoint" />
          </mxGeometry>
        </mxCell>
        <mxCell id="WUGnNeGUC_aCgyn4Gav0-35" value="" style="rounded=0;whiteSpace=wrap;html=1;fillColor=#d5e8d4;strokeColor=#82b366;" vertex="1" parent="1">
          <mxGeometry x="400" y="80" width="20" height="80" as="geometry" />
        </mxCell>
        <mxCell id="WUGnNeGUC_aCgyn4Gav0-36" value="" style="rounded=0;whiteSpace=wrap;html=1;fillColor=#e1d5e7;strokeColor=#9673a6;" vertex="1" parent="1">
          <mxGeometry x="420" y="80" width="20" height="80" as="geometry" />
        </mxCell>
        <mxCell id="WUGnNeGUC_aCgyn4Gav0-37" value="" style="rounded=0;whiteSpace=wrap;html=1;fillColor=#f8cecc;strokeColor=#b85450;" vertex="1" parent="1">
          <mxGeometry x="440" y="80" width="20" height="80" as="geometry" />
        </mxCell>
        <mxCell id="WUGnNeGUC_aCgyn4Gav0-39" value="15" style="text;html=1;align=center;verticalAlign=middle;resizable=0;points=[];autosize=1;" vertex="1" parent="1">
          <mxGeometry x="505" y="180" width="30" height="20" as="geometry" />
        </mxCell>
        <mxCell id="WUGnNeGUC_aCgyn4Gav0-40" value="" style="rounded=0;whiteSpace=wrap;html=1;fillColor=#d5e8d4;strokeColor=#82b366;" vertex="1" parent="1">
          <mxGeometry x="460" y="80" width="19" height="80" as="geometry" />
        </mxCell>
        <mxCell id="WUGnNeGUC_aCgyn4Gav0-41" value="" style="rounded=0;whiteSpace=wrap;html=1;fillColor=#e1d5e7;strokeColor=#9673a6;" vertex="1" parent="1">
          <mxGeometry x="479" y="80" width="21" height="80" as="geometry" />
        </mxCell>
        <mxCell id="WUGnNeGUC_aCgyn4Gav0-42" value="" style="rounded=0;whiteSpace=wrap;html=1;fillColor=#f8cecc;strokeColor=#b85450;" vertex="1" parent="1">
          <mxGeometry x="500" y="80" width="19" height="80" as="geometry" />
        </mxCell>
        <mxCell id="WUGnNeGUC_aCgyn4Gav0-43" style="edgeStyle=orthogonalEdgeStyle;rounded=0;orthogonalLoop=1;jettySize=auto;html=1;exitX=0;exitY=1;exitDx=0;exitDy=0;endArrow=none;endFill=0;" edge="1" parent="1">
          <mxGeometry relative="1" as="geometry">
            <mxPoint x="519" y="180" as="targetPoint" />
            <mxPoint x="519" y="160" as="sourcePoint" />
          </mxGeometry>
        </mxCell>
        <mxCell id="WUGnNeGUC_aCgyn4Gav0-44" value="A" style="text;html=1;align=center;verticalAlign=middle;resizable=0;points=[];autosize=1;" vertex="1" parent="1">
          <mxGeometry x="160" y="57" width="20" height="20" as="geometry" />
        </mxCell>
        <mxCell id="WUGnNeGUC_aCgyn4Gav0-45" value="B" style="text;html=1;align=center;verticalAlign=middle;resizable=0;points=[];autosize=1;" vertex="1" parent="1">
          <mxGeometry x="180" y="57" width="20" height="20" as="geometry" />
        </mxCell>
        <mxCell id="WUGnNeGUC_aCgyn4Gav0-46" value="C" style="text;html=1;align=center;verticalAlign=middle;resizable=0;points=[];autosize=1;" vertex="1" parent="1">
          <mxGeometry x="200" y="57" width="20" height="20" as="geometry" />
        </mxCell>
        <mxCell id="WUGnNeGUC_aCgyn4Gav0-47" value="" style="endArrow=none;html=1;" edge="1" parent="1">
          <mxGeometry width="50" height="50" relative="1" as="geometry">
            <mxPoint x="160" y="160" as="sourcePoint" />
            <mxPoint x="640" y="160" as="targetPoint" />
          </mxGeometry>
        </mxCell>
        <mxCell id="WUGnNeGUC_aCgyn4Gav0-48" style="edgeStyle=orthogonalEdgeStyle;rounded=0;orthogonalLoop=1;jettySize=auto;html=1;exitX=0;exitY=1;exitDx=0;exitDy=0;endArrow=none;endFill=0;" edge="1" parent="1">
          <mxGeometry relative="1" as="geometry">
            <mxPoint x="161" y="422" as="targetPoint" />
            <mxPoint x="160" y="402" as="sourcePoint" />
          </mxGeometry>
        </mxCell>
        <mxCell id="WUGnNeGUC_aCgyn4Gav0-49" value="" style="rounded=0;whiteSpace=wrap;html=1;fillColor=#d5e8d4;strokeColor=#82b366;" vertex="1" parent="1">
          <mxGeometry x="161" y="322" width="118" height="80" as="geometry" />
        </mxCell>
        <mxCell id="WUGnNeGUC_aCgyn4Gav0-50" value="" style="rounded=0;whiteSpace=wrap;html=1;fillColor=#e1d5e7;strokeColor=#9673a6;" vertex="1" parent="1">
          <mxGeometry x="279" y="322" width="130" height="80" as="geometry" />
        </mxCell>
        <mxCell id="WUGnNeGUC_aCgyn4Gav0-51" value="" style="rounded=0;whiteSpace=wrap;html=1;fillColor=#f8cecc;strokeColor=#b85450;" vertex="1" parent="1">
          <mxGeometry x="399" y="322" width="120" height="80" as="geometry" />
        </mxCell>
        <mxCell id="WUGnNeGUC_aCgyn4Gav0-52" value="0" style="text;html=1;align=center;verticalAlign=middle;resizable=0;points=[];autosize=1;" vertex="1" parent="1">
          <mxGeometry x="152" y="422" width="20" height="20" as="geometry" />
        </mxCell>
        <mxCell id="WUGnNeGUC_aCgyn4Gav0-53" value="5" style="text;html=1;align=center;verticalAlign=middle;resizable=0;points=[];autosize=1;" vertex="1" parent="1">
          <mxGeometry x="272" y="422" width="20" height="20" as="geometry" />
        </mxCell>
        <mxCell id="WUGnNeGUC_aCgyn4Gav0-57" value="时间" style="text;html=1;align=center;verticalAlign=middle;resizable=0;points=[];autosize=1;" vertex="1" parent="1">
          <mxGeometry x="265" y="445" width="40" height="20" as="geometry" />
        </mxCell>
        <mxCell id="WUGnNeGUC_aCgyn4Gav0-58" style="edgeStyle=orthogonalEdgeStyle;rounded=0;orthogonalLoop=1;jettySize=auto;html=1;exitX=0;exitY=1;exitDx=0;exitDy=0;endArrow=none;endFill=0;" edge="1" parent="1">
          <mxGeometry relative="1" as="geometry">
            <mxPoint x="280" y="422" as="targetPoint" />
            <mxPoint x="280" y="402" as="sourcePoint" />
          </mxGeometry>
        </mxCell>
        <mxCell id="WUGnNeGUC_aCgyn4Gav0-62" value="10" style="text;html=1;align=center;verticalAlign=middle;resizable=0;points=[];autosize=1;" vertex="1" parent="1">
          <mxGeometry x="387" y="422" width="30" height="20" as="geometry" />
        </mxCell>
        <mxCell id="WUGnNeGUC_aCgyn4Gav0-66" style="edgeStyle=orthogonalEdgeStyle;rounded=0;orthogonalLoop=1;jettySize=auto;html=1;exitX=0;exitY=1;exitDx=0;exitDy=0;endArrow=none;endFill=0;" edge="1" parent="1">
          <mxGeometry relative="1" as="geometry">
            <mxPoint x="400" y="422" as="targetPoint" />
            <mxPoint x="400" y="402" as="sourcePoint" />
          </mxGeometry>
        </mxCell>
        <mxCell id="WUGnNeGUC_aCgyn4Gav0-70" value="15" style="text;html=1;align=center;verticalAlign=middle;resizable=0;points=[];autosize=1;" vertex="1" parent="1">
          <mxGeometry x="507" y="422" width="30" height="20" as="geometry" />
        </mxCell>
        <mxCell id="WUGnNeGUC_aCgyn4Gav0-74" style="edgeStyle=orthogonalEdgeStyle;rounded=0;orthogonalLoop=1;jettySize=auto;html=1;exitX=0;exitY=1;exitDx=0;exitDy=0;endArrow=none;endFill=0;" edge="1" parent="1">
          <mxGeometry relative="1" as="geometry">
            <mxPoint x="520" y="422" as="targetPoint" />
            <mxPoint x="520" y="402" as="sourcePoint" />
          </mxGeometry>
        </mxCell>
        <mxCell id="WUGnNeGUC_aCgyn4Gav0-75" value="A" style="text;html=1;align=center;verticalAlign=middle;resizable=0;points=[];autosize=1;" vertex="1" parent="1">
          <mxGeometry x="213" y="299" width="20" height="20" as="geometry" />
        </mxCell>
        <mxCell id="WUGnNeGUC_aCgyn4Gav0-76" value="B" style="text;html=1;align=center;verticalAlign=middle;resizable=0;points=[];autosize=1;" vertex="1" parent="1">
          <mxGeometry x="332" y="299" width="20" height="20" as="geometry" />
        </mxCell>
        <mxCell id="WUGnNeGUC_aCgyn4Gav0-77" value="C" style="text;html=1;align=center;verticalAlign=middle;resizable=0;points=[];autosize=1;" vertex="1" parent="1">
          <mxGeometry x="450" y="299" width="20" height="20" as="geometry" />
        </mxCell>
        <mxCell id="WUGnNeGUC_aCgyn4Gav0-78" value="" style="endArrow=none;html=1;" edge="1" parent="1">
          <mxGeometry width="50" height="50" relative="1" as="geometry">
            <mxPoint x="161" y="402" as="sourcePoint" />
            <mxPoint x="641" y="402" as="targetPoint" />
          </mxGeometry>
        </mxCell>
        <mxCell id="WUGnNeGUC_aCgyn4Gav0-79" value="轮转（响应时间好）" style="text;html=1;align=center;verticalAlign=middle;resizable=0;points=[];autosize=1;" vertex="1" parent="1">
          <mxGeometry x="223" y="230" width="120" height="20" as="geometry" />
        </mxCell>
        <mxCell id="WUGnNeGUC_aCgyn4Gav0-80" value="SJF（响应时间不好）" style="text;html=1;align=center;verticalAlign=middle;resizable=0;points=[];autosize=1;" vertex="1" parent="1">
          <mxGeometry x="255" y="480" width="130" height="20" as="geometry" />
        </mxCell>
      </root>
    </mxGraphModel>
  </diagram>
  <diagram id="Zhcw6UWV2tRJ9ZIUAZYW" name="MLFQ">
    <mxGraphModel dx="954" dy="558" grid="1" gridSize="10" guides="1" tooltips="1" connect="1" arrows="1" fold="1" page="1" pageScale="1" pageWidth="1169" pageHeight="827" math="0" shadow="0">
      <root>
        <mxCell id="0" />
        <mxCell id="1" parent="0" />
        <mxCell id="CcsnzkKnMyILLwz9GySD-3" value="" style="endArrow=none;html=1;rounded=0;entryX=0;entryY=0.5;entryDx=0;entryDy=0;" edge="1" parent="1" target="CcsnzkKnMyILLwz9GySD-2">
          <mxGeometry width="50" height="50" relative="1" as="geometry">
            <mxPoint x="280" y="140" as="sourcePoint" />
            <mxPoint x="320" y="139.5" as="targetPoint" />
          </mxGeometry>
        </mxCell>
        <mxCell id="CcsnzkKnMyILLwz9GySD-1" value="A" style="ellipse;whiteSpace=wrap;html=1;aspect=fixed;fillColor=#ffe6cc;strokeColor=#d79b00;" vertex="1" parent="1">
          <mxGeometry x="320" y="120" width="40" height="40" as="geometry" />
        </mxCell>
        <mxCell id="CcsnzkKnMyILLwz9GySD-2" value="B" style="ellipse;whiteSpace=wrap;html=1;aspect=fixed;fillColor=#ffe6cc;strokeColor=#d79b00;" vertex="1" parent="1">
          <mxGeometry x="440" y="120" width="40" height="40" as="geometry" />
        </mxCell>
        <mxCell id="CcsnzkKnMyILLwz9GySD-4" value="&amp;nbsp;C" style="ellipse;whiteSpace=wrap;html=1;aspect=fixed;fillColor=#f8cecc;strokeColor=#b85450;" vertex="1" parent="1">
          <mxGeometry x="320" y="200" width="40" height="40" as="geometry" />
        </mxCell>
        <mxCell id="CcsnzkKnMyILLwz9GySD-5" value="D" style="ellipse;whiteSpace=wrap;html=1;aspect=fixed;fillColor=#d5e8d4;strokeColor=#82b366;" vertex="1" parent="1">
          <mxGeometry x="320" y="280" width="40" height="40" as="geometry" />
        </mxCell>
        <mxCell id="CcsnzkKnMyILLwz9GySD-6" value="" style="endArrow=none;html=1;rounded=0;entryX=0;entryY=0.5;entryDx=0;entryDy=0;" edge="1" parent="1">
          <mxGeometry width="50" height="50" relative="1" as="geometry">
            <mxPoint x="280" y="220" as="sourcePoint" />
            <mxPoint x="320" y="219.5" as="targetPoint" />
          </mxGeometry>
        </mxCell>
        <mxCell id="CcsnzkKnMyILLwz9GySD-7" value="" style="endArrow=none;html=1;rounded=0;entryX=0;entryY=0.5;entryDx=0;entryDy=0;" edge="1" parent="1">
          <mxGeometry width="50" height="50" relative="1" as="geometry">
            <mxPoint x="280" y="300" as="sourcePoint" />
            <mxPoint x="320" y="299.5" as="targetPoint" />
          </mxGeometry>
        </mxCell>
        <mxCell id="CcsnzkKnMyILLwz9GySD-8" value="Q8" style="text;html=1;align=center;verticalAlign=middle;resizable=0;points=[];autosize=1;strokeColor=none;fillColor=none;" vertex="1" parent="1">
          <mxGeometry x="240" y="125" width="40" height="30" as="geometry" />
        </mxCell>
        <mxCell id="CcsnzkKnMyILLwz9GySD-9" value="Q7" style="text;html=1;align=center;verticalAlign=middle;resizable=0;points=[];autosize=1;strokeColor=none;fillColor=none;" vertex="1" parent="1">
          <mxGeometry x="240" y="148" width="40" height="30" as="geometry" />
        </mxCell>
        <mxCell id="CcsnzkKnMyILLwz9GySD-10" value="Q6" style="text;html=1;align=center;verticalAlign=middle;resizable=0;points=[];autosize=1;strokeColor=none;fillColor=none;" vertex="1" parent="1">
          <mxGeometry x="240" y="169" width="40" height="30" as="geometry" />
        </mxCell>
        <mxCell id="CcsnzkKnMyILLwz9GySD-11" value="Q5" style="text;html=1;align=center;verticalAlign=middle;resizable=0;points=[];autosize=1;strokeColor=none;fillColor=none;" vertex="1" parent="1">
          <mxGeometry x="240" y="188" width="40" height="30" as="geometry" />
        </mxCell>
        <mxCell id="CcsnzkKnMyILLwz9GySD-12" value="Q4" style="text;html=1;align=center;verticalAlign=middle;resizable=0;points=[];autosize=1;strokeColor=none;fillColor=none;" vertex="1" parent="1">
          <mxGeometry x="240" y="207" width="40" height="30" as="geometry" />
        </mxCell>
        <mxCell id="CcsnzkKnMyILLwz9GySD-13" value="Q3" style="text;html=1;align=center;verticalAlign=middle;resizable=0;points=[];autosize=1;strokeColor=none;fillColor=none;" vertex="1" parent="1">
          <mxGeometry x="240" y="236" width="40" height="30" as="geometry" />
        </mxCell>
        <mxCell id="CcsnzkKnMyILLwz9GySD-14" value="Q2" style="text;html=1;align=center;verticalAlign=middle;resizable=0;points=[];autosize=1;strokeColor=none;fillColor=none;" vertex="1" parent="1">
          <mxGeometry x="240" y="261" width="40" height="30" as="geometry" />
        </mxCell>
        <mxCell id="CcsnzkKnMyILLwz9GySD-15" value="Q1" style="text;html=1;align=center;verticalAlign=middle;resizable=0;points=[];autosize=1;strokeColor=none;fillColor=none;" vertex="1" parent="1">
          <mxGeometry x="240" y="285" width="40" height="30" as="geometry" />
        </mxCell>
        <mxCell id="CcsnzkKnMyILLwz9GySD-16" value="高优先级" style="text;html=1;align=center;verticalAlign=middle;resizable=0;points=[];autosize=1;strokeColor=none;fillColor=none;" vertex="1" parent="1">
          <mxGeometry x="150" y="125" width="70" height="30" as="geometry" />
        </mxCell>
        <mxCell id="CcsnzkKnMyILLwz9GySD-17" value="低优先级" style="text;html=1;align=center;verticalAlign=middle;resizable=0;points=[];autosize=1;strokeColor=none;fillColor=none;" vertex="1" parent="1">
          <mxGeometry x="150" y="291" width="70" height="30" as="geometry" />
        </mxCell>
        <mxCell id="CcsnzkKnMyILLwz9GySD-18" value="MLFQ 例子" style="text;html=1;align=center;verticalAlign=middle;resizable=0;points=[];autosize=1;strokeColor=none;fillColor=none;" vertex="1" parent="1">
          <mxGeometry x="240" y="328" width="80" height="30" as="geometry" />
        </mxCell>
      </root>
    </mxGraphModel>
  </diagram>
  <diagram id="UytHkiwD5vm8HOrcD1bq" name="第 3 页">
    <mxGraphModel dx="954" dy="558" grid="1" gridSize="10" guides="1" tooltips="1" connect="1" arrows="1" fold="1" page="1" pageScale="1" pageWidth="1169" pageHeight="827" math="0" shadow="0">
      <root>
        <mxCell id="0" />
        <mxCell id="1" parent="0" />
        <mxCell id="mvPmmOiiY1Ij21B8ZtQ_-1" value="" style="rounded=0;whiteSpace=wrap;html=1;fillColor=#ffe6cc;strokeColor=#d79b00;" vertex="1" parent="1">
          <mxGeometry x="280" y="120" width="20" height="40" as="geometry" />
        </mxCell>
        <mxCell id="mvPmmOiiY1Ij21B8ZtQ_-2" value="Q2" style="text;html=1;align=center;verticalAlign=middle;resizable=0;points=[];autosize=1;strokeColor=none;fillColor=none;" vertex="1" parent="1">
          <mxGeometry x="240" y="128" width="40" height="30" as="geometry" />
        </mxCell>
        <mxCell id="mvPmmOiiY1Ij21B8ZtQ_-3" value="" style="rounded=0;whiteSpace=wrap;html=1;fillColor=#ffe6cc;strokeColor=#d79b00;" vertex="1" parent="1">
          <mxGeometry x="300" y="160" width="20" height="80" as="geometry" />
        </mxCell>
        <mxCell id="mvPmmOiiY1Ij21B8ZtQ_-4" value="Q1" style="text;html=1;align=center;verticalAlign=middle;resizable=0;points=[];autosize=1;strokeColor=none;fillColor=none;" vertex="1" parent="1">
          <mxGeometry x="240" y="188" width="40" height="30" as="geometry" />
        </mxCell>
        <mxCell id="mvPmmOiiY1Ij21B8ZtQ_-5" value="" style="rounded=0;whiteSpace=wrap;html=1;fillColor=#ffe6cc;strokeColor=#d79b00;" vertex="1" parent="1">
          <mxGeometry x="320" y="240" width="200" height="80" as="geometry" />
        </mxCell>
        <mxCell id="mvPmmOiiY1Ij21B8ZtQ_-6" value="Q0" style="text;html=1;align=center;verticalAlign=middle;resizable=0;points=[];autosize=1;strokeColor=none;fillColor=none;" vertex="1" parent="1">
          <mxGeometry x="240" y="260" width="40" height="30" as="geometry" />
        </mxCell>
        <mxCell id="mvPmmOiiY1Ij21B8ZtQ_-7" value="" style="endArrow=none;dashed=1;html=1;dashPattern=1 3;strokeWidth=2;rounded=0;" edge="1" parent="1">
          <mxGeometry width="50" height="50" relative="1" as="geometry">
            <mxPoint x="310" y="160" as="sourcePoint" />
            <mxPoint x="530" y="160" as="targetPoint" />
          </mxGeometry>
        </mxCell>
        <mxCell id="mvPmmOiiY1Ij21B8ZtQ_-8" value="" style="endArrow=none;dashed=1;html=1;dashPattern=1 3;strokeWidth=2;rounded=0;" edge="1" parent="1">
          <mxGeometry width="50" height="50" relative="1" as="geometry">
            <mxPoint x="280" y="240" as="sourcePoint" />
            <mxPoint x="500" y="240" as="targetPoint" />
          </mxGeometry>
        </mxCell>
        <mxCell id="mvPmmOiiY1Ij21B8ZtQ_-9" value="" style="endArrow=none;dashed=1;html=1;dashPattern=1 3;strokeWidth=2;rounded=0;" edge="1" parent="1">
          <mxGeometry width="50" height="50" relative="1" as="geometry">
            <mxPoint x="280" y="320" as="sourcePoint" />
            <mxPoint x="500" y="320" as="targetPoint" />
          </mxGeometry>
        </mxCell>
        <mxCell id="mvPmmOiiY1Ij21B8ZtQ_-10" value="0" style="text;html=1;align=center;verticalAlign=middle;resizable=0;points=[];autosize=1;strokeColor=none;fillColor=none;" vertex="1" parent="1">
          <mxGeometry x="265" y="318" width="30" height="30" as="geometry" />
        </mxCell>
        <mxCell id="mvPmmOiiY1Ij21B8ZtQ_-11" value="50" style="text;html=1;align=center;verticalAlign=middle;resizable=0;points=[];autosize=1;strokeColor=none;fillColor=none;" vertex="1" parent="1">
          <mxGeometry x="340" y="318" width="40" height="30" as="geometry" />
        </mxCell>
        <mxCell id="mvPmmOiiY1Ij21B8ZtQ_-12" value="100" style="text;html=1;align=center;verticalAlign=middle;resizable=0;points=[];autosize=1;strokeColor=none;fillColor=none;" vertex="1" parent="1">
          <mxGeometry x="420" y="318" width="40" height="30" as="geometry" />
        </mxCell>
        <mxCell id="mvPmmOiiY1Ij21B8ZtQ_-13" value="150" style="text;html=1;align=center;verticalAlign=middle;resizable=0;points=[];autosize=1;strokeColor=none;fillColor=none;" vertex="1" parent="1">
          <mxGeometry x="500" y="318" width="40" height="30" as="geometry" />
        </mxCell>
        <mxCell id="NOkVdTd7bct1r7_G5OTB-1" value="长时间工作随时间变化" style="text;html=1;align=center;verticalAlign=middle;resizable=0;points=[];autosize=1;strokeColor=none;fillColor=none;" vertex="1" parent="1">
          <mxGeometry x="330" y="348" width="140" height="30" as="geometry" />
        </mxCell>
      </root>
    </mxGraphModel>
  </diagram>
  <diagram id="shCXYtlvP3v9DxHHGOPB" name="第 4 页">
    <mxGraphModel dx="954" dy="558" grid="1" gridSize="10" guides="1" tooltips="1" connect="1" arrows="1" fold="1" page="1" pageScale="1" pageWidth="1169" pageHeight="827" math="0" shadow="1">
      <root>
        <mxCell id="0" />
        <mxCell id="1" parent="0" />
        <mxCell id="pvnx8aCpvgR1cmdgIsna-1" value="" style="rounded=0;whiteSpace=wrap;html=1;fillColor=#ffe6cc;strokeColor=#d79b00;" vertex="1" parent="1">
          <mxGeometry x="440" y="80" width="20" height="40" as="geometry" />
        </mxCell>
        <mxCell id="pvnx8aCpvgR1cmdgIsna-2" value="Q2" style="text;html=1;align=center;verticalAlign=middle;resizable=0;points=[];autosize=1;strokeColor=none;fillColor=none;" vertex="1" parent="1">
          <mxGeometry x="240" y="128" width="40" height="30" as="geometry" />
        </mxCell>
        <mxCell id="pvnx8aCpvgR1cmdgIsna-4" value="Q1" style="text;html=1;align=center;verticalAlign=middle;resizable=0;points=[];autosize=1;strokeColor=none;fillColor=none;" vertex="1" parent="1">
          <mxGeometry x="240" y="188" width="40" height="30" as="geometry" />
        </mxCell>
        <mxCell id="pvnx8aCpvgR1cmdgIsna-5" value="" style="rounded=0;whiteSpace=wrap;html=1;fillColor=#d5e8d4;strokeColor=#82b366;" vertex="1" parent="1">
          <mxGeometry x="320" y="280" width="120" height="40" as="geometry" />
        </mxCell>
        <mxCell id="pvnx8aCpvgR1cmdgIsna-6" value="Q0" style="text;html=1;align=center;verticalAlign=middle;resizable=0;points=[];autosize=1;strokeColor=none;fillColor=none;" vertex="1" parent="1">
          <mxGeometry x="240" y="260" width="40" height="30" as="geometry" />
        </mxCell>
        <mxCell id="pvnx8aCpvgR1cmdgIsna-7" value="" style="endArrow=none;dashed=1;html=1;dashPattern=1 3;strokeWidth=2;rounded=0;" edge="1" parent="1">
          <mxGeometry width="50" height="50" relative="1" as="geometry">
            <mxPoint x="310" y="160" as="sourcePoint" />
            <mxPoint x="560" y="160" as="targetPoint" />
          </mxGeometry>
        </mxCell>
        <mxCell id="pvnx8aCpvgR1cmdgIsna-8" value="" style="endArrow=none;dashed=1;html=1;dashPattern=1 3;strokeWidth=2;rounded=0;" edge="1" parent="1">
          <mxGeometry width="50" height="50" relative="1" as="geometry">
            <mxPoint x="280" y="260" as="sourcePoint" />
            <mxPoint x="560" y="260" as="targetPoint" />
          </mxGeometry>
        </mxCell>
        <mxCell id="pvnx8aCpvgR1cmdgIsna-9" value="" style="endArrow=none;dashed=1;html=1;dashPattern=1 3;strokeWidth=2;rounded=0;" edge="1" parent="1">
          <mxGeometry width="50" height="50" relative="1" as="geometry">
            <mxPoint x="280" y="320" as="sourcePoint" />
            <mxPoint x="500" y="320" as="targetPoint" />
          </mxGeometry>
        </mxCell>
        <mxCell id="pvnx8aCpvgR1cmdgIsna-10" value="0" style="text;html=1;align=center;verticalAlign=middle;resizable=0;points=[];autosize=1;strokeColor=none;fillColor=none;" vertex="1" parent="1">
          <mxGeometry x="265" y="318" width="30" height="30" as="geometry" />
        </mxCell>
        <mxCell id="pvnx8aCpvgR1cmdgIsna-11" value="50" style="text;html=1;align=center;verticalAlign=middle;resizable=0;points=[];autosize=1;strokeColor=none;fillColor=none;" vertex="1" parent="1">
          <mxGeometry x="340" y="318" width="40" height="30" as="geometry" />
        </mxCell>
        <mxCell id="pvnx8aCpvgR1cmdgIsna-12" value="100" style="text;html=1;align=center;verticalAlign=middle;resizable=0;points=[];autosize=1;strokeColor=none;fillColor=none;" vertex="1" parent="1">
          <mxGeometry x="420" y="318" width="40" height="30" as="geometry" />
        </mxCell>
        <mxCell id="pvnx8aCpvgR1cmdgIsna-13" value="150" style="text;html=1;align=center;verticalAlign=middle;resizable=0;points=[];autosize=1;strokeColor=none;fillColor=none;" vertex="1" parent="1">
          <mxGeometry x="500" y="318" width="40" height="30" as="geometry" />
        </mxCell>
        <mxCell id="pvnx8aCpvgR1cmdgIsna-14" value="一个交互性工作" style="text;html=1;align=center;verticalAlign=middle;resizable=0;points=[];autosize=1;strokeColor=none;fillColor=none;" vertex="1" parent="1">
          <mxGeometry x="385" y="348" width="110" height="30" as="geometry" />
        </mxCell>
        <mxCell id="pvnx8aCpvgR1cmdgIsna-15" value="" style="rounded=0;whiteSpace=wrap;html=1;fillColor=#d5e8d4;strokeColor=#82b366;" vertex="1" parent="1">
          <mxGeometry x="480" y="278" width="80" height="40" as="geometry" />
        </mxCell>
        <mxCell id="pvnx8aCpvgR1cmdgIsna-16" value="200" style="text;html=1;align=center;verticalAlign=middle;resizable=0;points=[];autosize=1;strokeColor=none;fillColor=none;" vertex="1" parent="1">
          <mxGeometry x="540" y="320" width="40" height="30" as="geometry" />
        </mxCell>
        <mxCell id="pvnx8aCpvgR1cmdgIsna-18" value="" style="rounded=0;whiteSpace=wrap;html=1;fillColor=#ffe6cc;strokeColor=#d79b00;" vertex="1" parent="1">
          <mxGeometry x="460" y="158" width="20" height="40" as="geometry" />
        </mxCell>
      </root>
    </mxGraphModel>
  </diagram>
  <diagram id="y4bZ8PIPbNGs77vwF0-c" name="第 5 页">
    <mxGraphModel dx="954" dy="558" grid="0" gridSize="10" guides="1" tooltips="1" connect="1" arrows="1" fold="1" page="1" pageScale="1" pageWidth="1169" pageHeight="827" math="0" shadow="1">
      <root>
        <mxCell id="0" />
        <mxCell id="1" parent="0" />
        <mxCell id="c96LXQd6KyUoJACDYorY-1" value="" style="rounded=0;whiteSpace=wrap;html=1;fillColor=#ffe6cc;strokeColor=#d79b00;" vertex="1" parent="1">
          <mxGeometry x="290" y="120" width="10" height="40" as="geometry" />
        </mxCell>
        <mxCell id="c96LXQd6KyUoJACDYorY-2" value="Q2" style="text;html=1;align=center;verticalAlign=middle;resizable=0;points=[];autosize=1;strokeColor=none;fillColor=none;" vertex="1" parent="1">
          <mxGeometry x="240" y="128" width="40" height="30" as="geometry" />
        </mxCell>
        <mxCell id="c96LXQd6KyUoJACDYorY-3" value="Q1" style="text;html=1;align=center;verticalAlign=middle;resizable=0;points=[];autosize=1;strokeColor=none;fillColor=none;" vertex="1" parent="1">
          <mxGeometry x="240" y="188" width="40" height="30" as="geometry" />
        </mxCell>
        <mxCell id="c96LXQd6KyUoJACDYorY-4" value="" style="rounded=0;whiteSpace=wrap;html=1;fillColor=#d5e8d4;strokeColor=#82b366;" vertex="1" parent="1">
          <mxGeometry x="280" y="280" width="10" height="40" as="geometry" />
        </mxCell>
        <mxCell id="c96LXQd6KyUoJACDYorY-5" value="Q0" style="text;html=1;align=center;verticalAlign=middle;resizable=0;points=[];autosize=1;strokeColor=none;fillColor=none;" vertex="1" parent="1">
          <mxGeometry x="240" y="260" width="40" height="30" as="geometry" />
        </mxCell>
        <mxCell id="c96LXQd6KyUoJACDYorY-6" value="" style="endArrow=none;dashed=1;html=1;dashPattern=1 3;strokeWidth=2;rounded=0;exitX=1.075;exitY=1.067;exitDx=0;exitDy=0;exitPerimeter=0;" edge="1" parent="1">
          <mxGeometry width="50" height="50" relative="1" as="geometry">
            <mxPoint x="283" y="178.01" as="sourcePoint" />
            <mxPoint x="560" y="178" as="targetPoint" />
          </mxGeometry>
        </mxCell>
        <mxCell id="c96LXQd6KyUoJACDYorY-7" value="" style="endArrow=none;dashed=1;html=1;dashPattern=1 3;strokeWidth=2;rounded=0;" edge="1" parent="1">
          <mxGeometry width="50" height="50" relative="1" as="geometry">
            <mxPoint x="280" y="260" as="sourcePoint" />
            <mxPoint x="560" y="260" as="targetPoint" />
          </mxGeometry>
        </mxCell>
        <mxCell id="c96LXQd6KyUoJACDYorY-8" value="" style="endArrow=none;dashed=1;html=1;dashPattern=1 3;strokeWidth=2;rounded=0;" edge="1" parent="1">
          <mxGeometry width="50" height="50" relative="1" as="geometry">
            <mxPoint x="280" y="320" as="sourcePoint" />
            <mxPoint x="500" y="320" as="targetPoint" />
          </mxGeometry>
        </mxCell>
        <mxCell id="c96LXQd6KyUoJACDYorY-9" value="0" style="text;html=1;align=center;verticalAlign=middle;resizable=0;points=[];autosize=1;strokeColor=none;fillColor=none;" vertex="1" parent="1">
          <mxGeometry x="265" y="318" width="30" height="30" as="geometry" />
        </mxCell>
        <mxCell id="c96LXQd6KyUoJACDYorY-10" value="50" style="text;html=1;align=center;verticalAlign=middle;resizable=0;points=[];autosize=1;strokeColor=none;fillColor=none;" vertex="1" parent="1">
          <mxGeometry x="340" y="318" width="40" height="30" as="geometry" />
        </mxCell>
        <mxCell id="c96LXQd6KyUoJACDYorY-11" value="100" style="text;html=1;align=center;verticalAlign=middle;resizable=0;points=[];autosize=1;strokeColor=none;fillColor=none;" vertex="1" parent="1">
          <mxGeometry x="420" y="318" width="40" height="30" as="geometry" />
        </mxCell>
        <mxCell id="c96LXQd6KyUoJACDYorY-12" value="150" style="text;html=1;align=center;verticalAlign=middle;resizable=0;points=[];autosize=1;strokeColor=none;fillColor=none;" vertex="1" parent="1">
          <mxGeometry x="490" y="318" width="40" height="30" as="geometry" />
        </mxCell>
        <mxCell id="c96LXQd6KyUoJACDYorY-13" value="混合I/O 密集型和 CPU 密集型" style="text;html=1;align=center;verticalAlign=middle;resizable=0;points=[];autosize=1;strokeColor=none;fillColor=none;" vertex="1" parent="1">
          <mxGeometry x="352" y="350" width="177" height="26" as="geometry" />
        </mxCell>
        <mxCell id="c96LXQd6KyUoJACDYorY-14" value="" style="rounded=0;whiteSpace=wrap;html=1;fillColor=#d5e8d4;strokeColor=#82b366;" vertex="1" parent="1">
          <mxGeometry x="300" y="280" width="10" height="40" as="geometry" />
        </mxCell>
        <mxCell id="fzoFQJX1riLJF0KVcLcy-3" value="" style="rounded=0;whiteSpace=wrap;html=1;fillColor=#ffe6cc;strokeColor=#d79b00;" vertex="1" parent="1">
          <mxGeometry x="330" y="120" width="10" height="40" as="geometry" />
        </mxCell>
        <mxCell id="fzoFQJX1riLJF0KVcLcy-4" value="" style="rounded=0;whiteSpace=wrap;html=1;fillColor=#d5e8d4;strokeColor=#82b366;" vertex="1" parent="1">
          <mxGeometry x="320" y="280" width="10" height="40" as="geometry" />
        </mxCell>
        <mxCell id="fzoFQJX1riLJF0KVcLcy-5" value="" style="rounded=0;whiteSpace=wrap;html=1;fillColor=#d5e8d4;strokeColor=#82b366;" vertex="1" parent="1">
          <mxGeometry x="340" y="280" width="10" height="40" as="geometry" />
        </mxCell>
        <mxCell id="fzoFQJX1riLJF0KVcLcy-6" value="" style="rounded=0;whiteSpace=wrap;html=1;fillColor=#ffe6cc;strokeColor=#d79b00;" vertex="1" parent="1">
          <mxGeometry x="370" y="120" width="10" height="40" as="geometry" />
        </mxCell>
        <mxCell id="fzoFQJX1riLJF0KVcLcy-7" value="" style="rounded=0;whiteSpace=wrap;html=1;fillColor=#d5e8d4;strokeColor=#82b366;" vertex="1" parent="1">
          <mxGeometry x="360" y="280" width="10" height="40" as="geometry" />
        </mxCell>
        <mxCell id="fzoFQJX1riLJF0KVcLcy-8" value="" style="rounded=0;whiteSpace=wrap;html=1;fillColor=#d5e8d4;strokeColor=#82b366;" vertex="1" parent="1">
          <mxGeometry x="380" y="280" width="10" height="40" as="geometry" />
        </mxCell>
        <mxCell id="fzoFQJX1riLJF0KVcLcy-9" value="" style="rounded=0;whiteSpace=wrap;html=1;fillColor=#ffe6cc;strokeColor=#d79b00;" vertex="1" parent="1">
          <mxGeometry x="310" y="120" width="10" height="40" as="geometry" />
        </mxCell>
        <mxCell id="fzoFQJX1riLJF0KVcLcy-10" value="" style="rounded=0;whiteSpace=wrap;html=1;fillColor=#ffe6cc;strokeColor=#d79b00;" vertex="1" parent="1">
          <mxGeometry x="350" y="120" width="10" height="40" as="geometry" />
        </mxCell>
        <mxCell id="fzoFQJX1riLJF0KVcLcy-12" value="" style="rounded=0;whiteSpace=wrap;html=1;fillColor=#ffe6cc;strokeColor=#d79b00;" vertex="1" parent="1">
          <mxGeometry x="390" y="120" width="10" height="40" as="geometry" />
        </mxCell>
        <mxCell id="fzoFQJX1riLJF0KVcLcy-56" value="" style="rounded=0;whiteSpace=wrap;html=1;fillColor=#d5e8d4;strokeColor=#82b366;" vertex="1" parent="1">
          <mxGeometry x="400" y="280" width="10" height="40" as="geometry" />
        </mxCell>
        <mxCell id="fzoFQJX1riLJF0KVcLcy-57" value="" style="rounded=0;whiteSpace=wrap;html=1;fillColor=#d5e8d4;strokeColor=#82b366;" vertex="1" parent="1">
          <mxGeometry x="420" y="280" width="10" height="40" as="geometry" />
        </mxCell>
        <mxCell id="fzoFQJX1riLJF0KVcLcy-58" value="" style="rounded=0;whiteSpace=wrap;html=1;fillColor=#d5e8d4;strokeColor=#82b366;" vertex="1" parent="1">
          <mxGeometry x="440" y="280" width="10" height="40" as="geometry" />
        </mxCell>
        <mxCell id="fzoFQJX1riLJF0KVcLcy-59" value="" style="rounded=0;whiteSpace=wrap;html=1;fillColor=#d5e8d4;strokeColor=#82b366;" vertex="1" parent="1">
          <mxGeometry x="460" y="280" width="10" height="40" as="geometry" />
        </mxCell>
        <mxCell id="fzoFQJX1riLJF0KVcLcy-60" value="" style="rounded=0;whiteSpace=wrap;html=1;fillColor=#d5e8d4;strokeColor=#82b366;" vertex="1" parent="1">
          <mxGeometry x="480" y="280" width="10" height="40" as="geometry" />
        </mxCell>
        <mxCell id="fzoFQJX1riLJF0KVcLcy-61" value="" style="rounded=0;whiteSpace=wrap;html=1;fillColor=#d5e8d4;strokeColor=#82b366;" vertex="1" parent="1">
          <mxGeometry x="500" y="280" width="10" height="40" as="geometry" />
        </mxCell>
        <mxCell id="fzoFQJX1riLJF0KVcLcy-62" value="" style="rounded=0;whiteSpace=wrap;html=1;fillColor=#ffe6cc;strokeColor=#d79b00;" vertex="1" parent="1">
          <mxGeometry x="410" y="120" width="10" height="40" as="geometry" />
        </mxCell>
        <mxCell id="fzoFQJX1riLJF0KVcLcy-63" value="" style="rounded=0;whiteSpace=wrap;html=1;fillColor=#ffe6cc;strokeColor=#d79b00;" vertex="1" parent="1">
          <mxGeometry x="450" y="120" width="10" height="40" as="geometry" />
        </mxCell>
        <mxCell id="fzoFQJX1riLJF0KVcLcy-64" value="" style="rounded=0;whiteSpace=wrap;html=1;fillColor=#ffe6cc;strokeColor=#d79b00;" vertex="1" parent="1">
          <mxGeometry x="490" y="120" width="10" height="40" as="geometry" />
        </mxCell>
        <mxCell id="fzoFQJX1riLJF0KVcLcy-65" value="" style="rounded=0;whiteSpace=wrap;html=1;fillColor=#ffe6cc;strokeColor=#d79b00;" vertex="1" parent="1">
          <mxGeometry x="430" y="120" width="10" height="40" as="geometry" />
        </mxCell>
        <mxCell id="fzoFQJX1riLJF0KVcLcy-66" value="" style="rounded=0;whiteSpace=wrap;html=1;fillColor=#ffe6cc;strokeColor=#d79b00;" vertex="1" parent="1">
          <mxGeometry x="470" y="120" width="10" height="40" as="geometry" />
        </mxCell>
        <mxCell id="fzoFQJX1riLJF0KVcLcy-67" value="" style="rounded=0;whiteSpace=wrap;html=1;fillColor=#ffe6cc;strokeColor=#d79b00;" vertex="1" parent="1">
          <mxGeometry x="510" y="120" width="10" height="40" as="geometry" />
        </mxCell>
      </root>
    </mxGraphModel>
  </diagram>
</mxfile>
